<svg xmlns="http://www.w3.org/2000/svg" viewBox="0 0 40 40" fill="none">
  <path d="M20,27 C13,23 12,11 20,4 C28,11 27,23 20,27 Z" fill="#8C67B4" transform="rotate(-38 20 27)"/>
  <path d="M20,27 C13,23 12,11 20,4 C28,11 27,23 20,27 Z" fill="#F0BED0" opacity=".9" transform="rotate(-19 20 27)"/>
  <path d="M20,27 C13,23 12,11 20,4 C28,11 27,23 20,27 Z" fill="#8C67B4" transform="rotate(0 20 27)"/>
  <path d="M20,27 C13,23 12,11 20,4 C28,11 27,23 20,27 Z" fill="#F0BED0" opacity=".9" transform="rotate(19 20 27)"/>
  <path d="M20,27 C13,23 12,11 20,4 C28,11 27,23 20,27 Z" fill="#8C67B4" transform="rotate(38 20 27)"/>
  <line x1="20" y1="27" x2="16" y2="14" stroke="#C9A467" stroke-width="0.9" stroke-linecap="round"/>
  <line x1="20" y1="27" x2="20" y2="11" stroke="#C9A467" stroke-width="0.9" stroke-linecap="round"/>
  <line x1="20" y1="27" x2="24" y2="14" stroke="#C9A467" stroke-width="0.9" stroke-linecap="round"/>
  <circle cx="16" cy="14" r="1" fill="#C9A467"/><circle cx="20" cy="11" r="1" fill="#C9A467"/><circle cx="24" cy="14" r="1" fill="#C9A467"/>
  <path d="M20,27 L20,37" stroke="#8C67B4" stroke-width="1.4" stroke-linecap="round"/>
  <path d="M20,32 C24,31 27,33 28,36 C24,37 20,35 20,32Z" fill="#F0BED0" opacity=".85"/>
</svg>
